<?xml version="1.0" standalone="no"?>
<!DOCTYPE svg PUBLIC "-//W3C//DTD SVG 20010904//EN"
 "http://www.w3.org/TR/2001/REC-SVG-20010904/DTD/svg10.dtd">
<svg version="1.0" xmlns="http://www.w3.org/2000/svg"
 width="512.000000pt" height="512.000000pt" viewBox="0 0 512.000000 512.000000"
 preserveAspectRatio="xMidYMid meet">
<metadata>
Created by potrace 1.14, written by Peter Selinger 2001-2017
</metadata>
<g transform="translate(0.000000,512.000000) scale(0.100000,-0.100000)"
fill="#000000" stroke="none">
<path d="M1302 5020 c-12 -11 -26 -39 -32 -63 -6 -23 -12 -45 -13 -48 -1 -4
-87 -76 -192 -160 -104 -84 -261 -210 -347 -280 l-158 -128 -197 0 c-109 0
-206 0 -216 0 -10 -1 -29 -12 -42 -26 l-25 -24 0 -310 0 -310 24 -28 24 -28
312 0 c354 -1 352 -1 365 75 l7 40 94 0 94 0 0 -1555 c0 -855 -3 -1556 -7
-1556 -5 -1 -69 -2 -143 -3 -74 -1 -144 -5 -156 -9 -38 -13 -44 -47 -44 -266
0 -207 0 -208 25 -235 l24 -26 655 0 654 0 24 28 c24 28 24 31 23 245 0 279
13 261 -192 263 -82 1 -150 2 -153 3 -4 1 -5 2091 -1 2111 1 3 193 5 429 4
435 -1 476 2 498 37 5 8 9 133 10 279 l1 264 -104 202 c-57 111 -103 205 -103
208 0 3 170 6 378 6 l377 0 0 -274 0 -274 -81 0 c-89 1 -120 -11 -135 -49 -5
-14 -9 -131 -9 -265 1 -239 1 -240 25 -264 13 -13 32 -24 42 -25 10 0 123 -1
251 -1 269 0 277 2 286 74 3 24 5 138 4 253 -1 278 1 275 -150 278 l-73 2 0
273 0 272 172 0 c188 0 215 6 234 51 15 38 -1 79 -46 113 -18 14 -39 31 -47
38 -7 7 -38 33 -68 58 -30 25 -68 57 -85 72 -91 80 -191 158 -205 159 -8 1
-44 2 -80 4 -72 2 -68 1 -335 130 -227 110 -421 204 -550 265 -55 26 -176 85
-270 130 -93 45 -213 102 -265 127 -52 25 -96 46 -98 48 -2 2 -5 18 -7 36 -3
20 -15 43 -30 57 -25 21 -34 22 -189 22 -149 0 -164 -2 -184 -20z m243 -470
l0 -325 -152 0 c-84 0 -153 2 -153 5 0 3 35 136 79 295 43 160 82 305 86 323
l7 33 66 -3 67 -3 0 -325z m411 80 c82 -40 194 -94 249 -120 55 -26 177 -85
270 -130 94 -45 203 -97 243 -116 39 -19 72 -35 72 -36 0 -7 -1076 -3 -1080 3
-4 6 -5 454 -1 507 1 8 16 5 49 -12 27 -14 116 -57 198 -96z m-817 -156 c-22
-82 -46 -172 -54 -199 l-14 -50 -131 0 c-81 0 -130 4 -131 10 -1 18 -7 50 -13
70 -5 16 17 38 115 115 66 52 128 102 137 110 41 36 125 100 128 97 2 -2 -15
-71 -37 -153z m-513 -294 c22 0 22 -2 22 -200 0 -110 -3 -201 -6 -201 -4 -1
-96 -2 -204 -3 l-198 -2 0 202 c0 181 2 203 17 206 9 2 91 2 182 1 91 -2 176
-3 187 -3z m459 -119 c8 -1 -109 -121 -118 -121 -6 0 -77 109 -77 118 0 6 151
9 195 3z m652 -20 c-28 -31 -58 -60 -91 -90 l-26 -25 -65 64 c-35 35 -62 66
-60 69 2 4 62 6 134 6 l130 0 -22 -24z m683 19 c0 -3 -29 -35 -65 -70 l-65
-64 -65 64 c-36 35 -65 67 -65 70 0 3 58 5 130 5 71 0 130 -2 130 -5z m662 -5
c-10 -17 -117 -125 -124 -125 -8 0 -128 121 -128 129 0 4 58 6 129 6 84 0 127
-3 123 -10z m-1726 -89 c35 -35 64 -67 64 -70 0 -3 -62 -6 -137 -6 l-137 0 69
70 c38 39 71 70 73 70 2 0 33 -29 68 -64z m693 -28 l44 -48 -139 0 -138 0 68
69 69 70 26 -22 c14 -12 46 -43 70 -69z m641 -46 c-39 -2 -101 -2 -137 0 l-67
3 69 68 69 67 68 -67 69 -68 -71 -3z m691 72 c43 -36 79 -68 79 -70 0 -2 -70
-4 -156 -4 l-156 0 68 70 c38 39 73 70 77 70 5 0 45 -30 88 -66z m-1835 -364
c0 -71 -3 -130 -6 -130 -3 0 -64 59 -135 130 l-130 130 136 0 136 0 -1 -130z
m824 -95 l115 -226 1 -189 c0 -105 -2 -191 -5 -191 -3 -1 -178 -2 -388 -3
-259 -1 -383 2 -384 9 -3 29 -4 811 -1 818 2 4 126 7 275 7 l272 0 115 -225z
m-947 -329 c-48 -50 -127 -129 -175 -175 l-88 -85 0 351 0 351 176 -175 175
-176 -88 -91z m123 -451 c0 -190 -3 -345 -6 -345 -3 0 -82 77 -175 170 l-170
170 175 175 c96 96 175 175 175 175 1 0 1 -155 1 -345z m1846 296 l26 -1 0
-140 c0 -97 -4 -140 -12 -141 -13 -1 -246 -1 -263 0 -10 1 -13 36 -13 140 0
137 0 140 23 143 19 3 144 2 239 -1z m-1895 -833 c11 -15 -11 -40 -162 -193
l-175 -175 0 352 0 352 163 -159 c89 -88 168 -168 174 -177z m49 -562 c0 -298
-2 -343 -15 -333 -17 14 -287 285 -316 316 l-19 22 169 169 c94 94 173 170
176 170 3 0 5 -155 5 -344z m-203 -715 c-94 -94 -173 -171 -177 -171 -3 0 -6
156 -6 347 l0 348 177 -177 177 -177 -171 -170z m202 -163 c-1 -68 -3 -125 -4
-128 -1 -4 -244 -5 -261 -1 -3 0 53 59 124 130 72 72 133 128 136 126 4 -2 6
-59 5 -127z m351 -400 l0 -108 -543 0 -543 0 0 108 0 107 543 0 542 1 1 -108z"/>
<path d="M1814 3626 l-28 -23 -1 -279 c-1 -297 2 -321 47 -340 14 -7 120 -11
275 -10 316 1 297 -9 299 163 l1 118 -94 185 c-52 101 -102 190 -111 197 -12
9 -67 12 -189 13 -166 0 -173 -1 -199 -24z m361 -267 c67 -131 90 -212 62
-222 -7 -2 -75 -4 -152 -3 l-139 1 -1 165 c0 91 1 171 3 178 3 8 28 12 82 12
l78 0 67 -131z"/>
<path d="M3935 3444 c-13 -14 -24 -29 -23 -33 0 -3 0 -49 -1 -103 l-1 -96 -95
-4 c-82 -3 -97 -6 -117 -26 l-23 -23 -2 -482 c0 -265 -2 -488 -2 -494 -1 -8
-16 -13 -39 -13 l-39 0 1 99 c0 107 -11 146 -48 157 -27 9 -766 9 -793 0 -35
-11 -47 -51 -48 -157 l0 -99 -90 0 c-100 0 -127 -11 -142 -57 -5 -16 -8 -469
-8 -1007 l1 -979 28 -23 27 -24 1225 0 c1304 0 1270 -1 1288 45 7 21 8 3002 0
3031 -10 38 -54 54 -149 54 l-87 0 2 33 c1 17 2 65 1 105 -1 63 -4 76 -26 97
l-24 25 -396 0 -396 0 -24 -26z m705 -184 l0 -50 -285 0 -285 0 0 50 0 50 285
0 285 0 0 -50z m240 -1615 l0 -1405 -65 0 c-45 0 -65 4 -66 13 0 6 -2 188 -3
402 -1 383 -2 391 -24 433 -25 47 -87 97 -141 113 -22 7 -116 9 -246 7 -229
-3 -242 -6 -302 -67 -66 -65 -66 -63 -66 -503 l0 -398 -67 0 -66 0 1 1402 c1
772 3 1404 3 1405 1 1 236 2 522 3 l520 0 0 -1405z m-1489 626 l45 -1 -1 -47
-1 -48 -279 -3 c-206 -2 -281 1 -286 9 -4 7 -6 26 -4 43 2 17 4 36 4 41 1 9
200 11 522 6z m280 -278 c3 -58 3 -1712 0 -1731 l-3 -22 -522 0 -521 0 2 877
c0 483 2 881 2 886 1 4 235 7 521 7 488 0 520 -1 521 -17z m890 -962 l24 -19
1 -386 0 -386 -228 0 c-210 0 -228 1 -229 18 0 9 -1 183 -1 386 l-1 370 23 18
c20 16 43 18 205 18 165 0 185 -2 206 -19z"/>
<path d="M3939 2790 l-29 -29 0 -570 1 -571 23 -27 24 -28 384 -1 c210 0 394
3 408 8 52 17 51 9 51 608 0 307 -3 570 -7 584 -13 53 -27 54 -443 55 l-384 0
-28 -29z m336 -233 l0 -102 -101 -1 -102 -2 -1 103 -2 103 104 0 103 1 -1
-102z m363 0 l-3 -102 -99 0 -100 0 -1 90 c0 50 1 95 3 101 2 7 39 11 103 12
l100 1 -3 -102z m-367 -266 c4 -1 6 -46 6 -101 l-1 -100 -103 0 -103 0 0 99
c0 85 2 100 17 103 13 2 162 2 184 -1z m364 -2 c3 -4 7 -125 6 -177 -1 -22 -3
-23 -103 -20 l-102 3 0 93 c-1 62 3 96 11 100 12 7 181 7 188 1z m-360 -464
l0 -100 -90 -1 c-49 0 -96 2 -102 4 -9 3 -13 33 -13 103 l0 100 103 -3 102 -3
0 -100z m363 3 l-3 -103 -90 -1 c-49 0 -94 3 -100 7 -8 6 -11 114 -6 187 1 9
28 12 101 12 l101 0 -3 -102z"/>
<path d="M2729 1724 l-24 -25 0 -575 0 -574 26 -26 27 -26 392 0 393 0 25 26
26 25 0 573 1 572 -23 28 -24 28 -397 0 -398 0 -24 -26z m341 -233 l0 -99 -52
-4 c-29 -1 -76 -2 -103 0 l-51 3 2 92 c1 51 2 95 3 100 0 4 46 7 101 7 l100 0
0 -99z m365 4 c0 -49 -1 -94 -2 -100 -2 -6 -36 -9 -81 -8 -42 1 -87 2 -99 3
-22 0 -23 3 -23 100 l0 101 102 -3 102 -3 1 -90z m-367 -368 l-3 -102 -97 -1
c-54 -1 -99 2 -99 5 -4 18 -5 178 -1 188 2 7 37 12 103 12 l100 1 -3 -103z
m367 8 c0 -49 -1 -95 -3 -102 -2 -7 -36 -11 -103 -11 l-99 1 0 102 0 103 102
-1 102 -2 1 -90z m-390 -274 c25 -1 25 -1 25 -101 l0 -100 -30 -1 c-111 -3
-161 -1 -167 5 -4 4 -7 48 -8 99 0 113 -15 104 180 98z m386 -11 c6 -74 2
-183 -6 -186 -5 -2 -52 -5 -103 -7 l-92 -2 0 102 c0 117 -10 108 117 108 67 0
83 -3 84 -15z"/>
</g>
</svg>
